# xmcd CD database file
#
# Track frame offsets:
#	150
#	16903
#	35514
#	52317
#	67748
#	85506
#	105546
#	126980
#	144094
#	161758
#
# Disc length: 2422 seconds
#
# Revision: 2
# Processed by: cddbd v1.5.2PL0 Copyright (c) Steve Scherf et al.
# Submitted via: CDex 1.70beta2
#
DISCID=7b09740a
DTITLE=Tyrese [a.k.a. Black-TY] - Alter Ego [CD1] - BVCP-28071
DYEAR=2006
DGENRE=Classical
TTITLE0=One
TTITLE1=Lights On
TTITLE2=Turn Ya Out (feat. Lil Jon)
TTITLE3=Come Back To Me Shawty
TTITLE4=Better to Know
TTITLE5=Gotta Get You
TTITLE6=Morning After
TTITLE7=Hurry Up
TTITLE8=Signs of Love Makin' PartⅡ (feat. R. Kelly)
TTITLE9=Better Than Sex
EXTD=YEAR: 2006
EXTT0=
EXTT1=
EXTT2=
EXTT3=
EXTT4=
EXTT5=
EXTT6=
EXTT7=
EXTT8=
EXTT9=
PLAYORDER=
